<svg width="48" height="48" viewBox="0 0 48 48" fill="none" xmlns="http://www.w3.org/2000/svg">
<path d="M40.6 26.8601C40.0961 26.7031 39.5505 26.7516 39.0822 26.9951C38.6139 27.2386 38.2608 27.6574 38.1 28.1601C37.1551 31.0491 35.3131 33.5612 32.8419 35.3309C30.3707 37.1007 27.3993 38.0358 24.36 38.0001C20.6007 38.0428 16.9779 36.593 14.2859 33.9686C11.594 31.3441 10.0527 27.7593 10 24.0001C10.0527 20.2409 11.594 16.6561 14.2859 14.0316C16.9779 11.4072 20.6007 9.95739 24.36 10.0001C27.7552 9.99192 31.0458 11.1737 33.66 13.3401L29.32 12.6201C29.0599 12.5773 28.7939 12.5864 28.5373 12.6467C28.2807 12.7071 28.0386 12.8176 27.8248 12.9718C27.6111 13.1261 27.4299 13.3211 27.2918 13.5456C27.1537 13.7702 27.0613 14.0198 27.02 14.2801C26.9772 14.5402 26.9862 14.8062 27.0466 15.0628C27.107 15.3194 27.2175 15.5616 27.3717 15.7753C27.526 15.989 27.721 16.1702 27.9455 16.3083C28.17 16.4464 28.4197 16.5388 28.68 16.5801L37.16 17.9801H37.5C37.7319 17.9798 37.962 17.9392 38.18 17.8601C38.2533 17.8323 38.321 17.7917 38.38 17.7401C38.5234 17.6868 38.6582 17.6127 38.78 17.5201L38.96 17.3001C38.96 17.2001 39.14 17.1201 39.22 17.0001C39.3 16.8801 39.22 16.8001 39.32 16.7201C39.3753 16.6036 39.4221 16.4833 39.46 16.3601L40.96 8.36012C41.0099 8.09747 41.0076 7.82757 40.9532 7.56582C40.8988 7.30408 40.7933 7.05561 40.6429 6.8346C40.4925 6.6136 40.3 6.42439 40.0764 6.27778C39.8529 6.13116 39.6026 6.03002 39.34 5.98012C39.0774 5.93021 38.8075 5.93253 38.5457 5.98694C38.284 6.04134 38.0355 6.14677 37.8145 6.2972C37.3682 6.60101 37.0608 7.06968 36.96 7.60012L36.42 10.5001C33.072 7.5986 28.7904 6.00098 24.36 6.00012C19.5399 5.95745 14.8997 7.82871 11.4576 11.2033C8.01555 14.5778 6.05278 19.1801 6 24.0001C6.05278 28.8201 8.01555 33.4224 11.4576 36.797C14.8997 40.1715 19.5399 42.0428 24.36 42.0001C28.2663 42.0601 32.0886 40.8644 35.2643 38.5888C38.4399 36.3133 40.801 33.0783 42 29.3601C42.0759 29.1041 42.0997 28.8354 42.07 28.57C42.0404 28.3046 41.9579 28.0478 41.8274 27.8148C41.6969 27.5818 41.5211 27.3772 41.3103 27.2133C41.0995 27.0493 40.858 26.9292 40.6 26.8601Z" fill="#9E9D9C"/>
</svg>
