<svg width="48" height="48" viewBox="0 0 48 48" fill="none" xmlns="http://www.w3.org/2000/svg">
<path d="M24 4C20.0444 4 16.1776 5.17298 12.8886 7.37061C9.59962 9.56824 7.03617 12.6918 5.52242 16.3463C4.00867 20.0009 3.6126 24.0222 4.3843 27.9018C5.15601 31.7814 7.06082 35.3451 9.85787 38.1421C12.6549 40.9392 16.2186 42.844 20.0982 43.6157C23.9778 44.3874 27.9992 43.9913 31.6537 42.4776C35.3082 40.9638 38.4318 38.4004 40.6294 35.1114C42.827 31.8224 44 27.9556 44 24C44 21.3736 43.4827 18.7728 42.4776 16.3463C41.4725 13.9198 39.9993 11.715 38.1421 9.85786C36.285 8.00069 34.0802 6.5275 31.6537 5.52241C29.2272 4.51732 26.6264 4 24 4ZM24 40C20.8355 40 17.7421 39.0616 15.1109 37.3035C12.4797 35.5454 10.4289 33.0466 9.21794 30.1229C8.00694 27.1993 7.69008 23.9823 8.30745 20.8786C8.92481 17.7749 10.4487 14.9239 12.6863 12.6863C14.9239 10.4487 17.7749 8.9248 20.8786 8.30744C23.9823 7.69007 27.1993 8.00693 30.1229 9.21793C33.0466 10.4289 35.5454 12.4797 37.3035 15.1109C39.0616 17.7421 40 20.8355 40 24C40 28.2435 38.3143 32.3131 35.3137 35.3137C32.3131 38.3143 28.2435 40 24 40Z" fill="#9E9D9C"/>
<path d="M24 12.0001C22.1435 12.0001 20.363 12.7376 19.0503 14.0504C17.7375 15.3631 17 17.1436 17 19.0001C17 19.5306 17.2107 20.0393 17.5858 20.4143C17.9609 20.7894 18.4696 21.0001 19 21.0001C19.5304 21.0001 20.0391 20.7894 20.4142 20.4143C20.7893 20.0393 21 19.5306 21 19.0001C21 18.4068 21.1759 17.8268 21.5056 17.3334C21.8352 16.8401 22.3038 16.4556 22.8519 16.2285C23.4001 16.0014 24.0033 15.942 24.5853 16.0578C25.1672 16.1735 25.7018 16.4593 26.1213 16.8788C26.5409 17.2984 26.8266 17.8329 26.9424 18.4149C27.0581 18.9968 26.9987 19.6 26.7716 20.1482C26.5446 20.6964 26.1601 21.1649 25.6667 21.4945C25.1734 21.8242 24.5933 22.0001 24 22.0001C23.4696 22.0001 22.9609 22.2108 22.5858 22.5859C22.2107 22.961 22 23.4697 22 24.0001V28.0001C22 28.5306 22.2107 29.0393 22.5858 29.4143C22.9609 29.7894 23.4696 30.0001 24 30.0001C24.5304 30.0001 25.0391 29.7894 25.4142 29.4143C25.7893 29.0393 26 28.5306 26 28.0001V25.6801C27.6162 25.2081 29.0073 24.1679 29.917 22.751C30.8266 21.3342 31.1935 19.6363 30.9499 17.9703C30.7063 16.3043 29.8688 14.7824 28.5916 13.6853C27.3144 12.5882 25.6837 11.9897 24 12.0001Z" fill="#9E9D9C"/>
<path d="M24 36C25.1046 36 26 35.1046 26 34C26 32.8954 25.1046 32 24 32C22.8954 32 22 32.8954 22 34C22 35.1046 22.8954 36 24 36Z" fill="#9E9D9C"/>
</svg>
